#!OML:ASF F:\VICON\USERDATA\INSTALL\rory3\rory3.ASF
:FULLY-SPECIFIED
:DEGREES
22
root -0.35305266464750995 18.256168456310302 10.513299172347669 6.080683446970436 -3.293805814220869 0.12964025972444215
lfemur 17.051953869856987 -2.723126258018466 -26.523443715793835
ltibia 27.375127489893842
lfoot 15.617298806955084 -15.005200758181806
ltoes -19.111624750549016
rfemur -47.64958454263372 1.08183362122045 24.988154359913814
rtibia 45.63231489816675
rfoot 3.3602623452813356 0.619103523010418
rtoes -9.27222401284283
lowerback 13.352719829258636 -1.1616964471519804 -2.6175671218854246
upperback -2.3853976076902814 -1.585326085007297 2.249298276182086
thorax -9.951570826511597 -0.6401315396606542 4.083172606670355
lowerneck -20.46114062991531 -2.1202185026114373 -2.081631317914738
upperneck 16.575315573078317 -2.7157356422177803 2.385810491613611
head 8.502627395338116 -1.1263603835603884 0.7157898043109772
lclavicle -1.858967903899964e-15 -2.8900969511309456e-15
lhumerus -31.424272988420793 -23.18217208431909 96.45897706323608
lradius 122.70227042455429
lwrist 34.138164422405836
lhand -24.265995916519902 1.2295059804200639
lfingers nan
lthumb 2.276036602620745 31.251058008047924
rclavicle -1.9545035636046903e-15 -2.968301729251789e-15
rhumerus -66.01043484411034 2.917205276309117 -94.02646707314557
rradius 109.58009597383543
rwrist -13.261551530471001
rhand -16.154211368321107 40.158675777721974
rfingers nan
rthumb 10.300028053407074 10.393474439538988
23
root -0.30344820454238014 18.410487945505903 10.503276094140745 6.197659442282884 -3.5142001370905587 0.9831648653697931
lfemur 18.233456628623607 -3.9236880451174545 -27.700345748681436
ltibia 31.72282559161742
lfoot 13.238824071473813 -13.280014553736754
ltoes -17.274990758984544
rfemur -44.936624249562726 0.12725422459300662 24.95575259818814
rtibia 34.63971980786696
rfoot 3.043073045264798 -1.4039484615392226
rtoes -13.529573495536908
lowerback 13.29369907827863 -1.245186279041644 -2.9768027567157826
upperback -2.1830721549569887 -1.9702407530463777 2.08344761236968
thorax -9.66967655087588 -0.8067037728627597 4.404585507917224
lowerneck -20.536631167122177 -2.046771082904629 -2.0740743075705774
upperneck 16.609076313483342 -2.4947960618448835 2.3004056589465702
head 8.50014039060747 -1.050850906538701 0.7237778670441773
lclavicle -1.8270642728042445e-15 -2.863632625850747e-15
lhumerus -32.53328215178841 -23.95288938356184 96.55242405119355
lradius 121.91307977264009
lwrist 33.63455400325562
lhand -24.8875466498855 1.1438595067413644
lfingers nan
lthumb 1.7793773415541572 31.374974418984984
rclavicle -1.9480915499997335e-15 -2.962282989736423e-15
rhumerus -66.25860380963556 1.0538411605676448 -92.66547422818911
rradius 109.76753312156701
rwrist -11.43749396200155
rhand -16.258883297909996 40.13150350796321
rfingers nan
rthumb 10.267511507153516 10.282680702507065
24
root -0.25427078494996963 18.461377508077767 11.502816499711185 5.97399721139411 -3.4633072711107897 1.349591303897213
lfemur 17.29378734553361 -4.562674830286477 -27.9094260418415
ltibia 39.32180600382943
lfoot 12.003262799454347 -11.86067965421712
ltoes -10.860253897245133
rfemur -42.703513659936114 -0.4761088302356158 25.41606936566987
rtibia 29.558778236151454
rfoot 3.519122250499425 -5.068859445096031
rtoes -11.847669480162214
lowerback 13.472686043668348 -1.2545659610341566 -2.905364415539607
upperback -1.806685244670974 -2.1827059452463504 1.8250912107932362
thorax -9.176868771066644 -0.9054956308477384 4.340451263354155
lowerneck -20.83565129518141 -2.2494535387155263 -2.1960537842933276
upperneck 16.093014836591976 -2.68433163585514 2.4468208077876934
head 8.358408823499596 -1.1260822101835841 0.7931670478938052
lclavicle -1.8308455307583586e-15 -2.865785392261917e-15
lhumerus -34.358818298616114 -22.881345654819775 97.02527545608736
lradius 119.29990020272908
lwrist 33.72944510092947
lhand -25.167607973259237 1.5982057866056545
lfingers nan
lthumb 1.533797932085203 31.846701267544752
rclavicle -1.956352971430671e-15 -2.9684535924327213e-15
rhumerus -65.83224448114235 -0.25673304274025455 -91.61176010472776
rradius 109.48032399725456
rwrist -9.132274285882382
rhand -16.344314644031435 40.051235310814114
rfingers nan
rthumb 10.273789533315421 10.187958370534837
25
root -0.19871407911726174 18.406765502542395 12.75407898877937 5.346460825231084 -3.609157193977381 0.837443162560835
lfemur 14.261736628468286 -4.265383069751939 -26.83760274563485
ltibia 49.76678228160379
lfoot 9.884622280917272 -10.974785509037687
ltoes -6.144211216501779
rfemur -40.68740337884373 0.045101864558521054 26.464364810666666
rtibia 31.166586242265744
rfoot 3.483775625893159 -3.6517054960997832
rtoes -4.880590806381389
lowerback 13.990850877275603 -1.1372300703863862 -2.1535282953057706
upperback -1.353161767665261 -1.9553926511958983 1.9013372544036191
thorax -9.107845368999703 -0.7929400266605147 3.998451206477813
lowerneck -20.7891725560403 -2.4728901886731496 -2.345961024517377
upperneck 15.53632357652465 -2.940574067695029 2.5363920140158176
head 8.155309369258037 -1.2521481248433064 0.8124689680256731
lclavicle -1.8533990877318642e-15 -2.8834852512620606e-15
lhumerus -36.23157554413455 -21.480398875312165 97.53265601106106
lradius 115.15686245106438
lwrist 34.13049812121805
lhand -25.257340353028177 1.611335635813326
lfingers nan
lthumb 1.4119311996200579 31.809251233382927
rclavicle -1.9556913348365376e-15 -2.9678865300171585e-15
rhumerus -64.47926731262493 -1.0403831532826882 -90.9923371366686
rradius 108.86706601996967
rwrist -7.491617438236296
rhand -16.303100995946796 39.71598715711065
rfingers nan
rthumb 10.317189271306743 9.876747282755844
26
root -0.13969255758024413 18.29796840753212 14.82747127843853 5.081606248123105 -4.582965984040319 -0.524853498915137
lfemur 9.636779616617863 -2.5930400224638923 -23.985684513069685
ltibia 62.152823342399365
lfoot 8.143445787373192 -9.391888766811139
ltoes -5.963407372083122
rfemur -38.95959572999492 1.5443633098063039 28.019052221310563
rtibia 37.56617376516654
rfoot 0.1457993244079434 0.34017487683245395
rtoes 2.4526160904082746
lowerback 14.60623331225525 -0.624926940868001 -0.8826909457328702
upperback -0.8949321907027261 -1.0516678782324966 2.162725530789438
thorax -9.342480394971432 -0.4138420150634958 3.4371241988081915
lowerneck -20.44690965789145 -2.591686232768077 -2.2527981277892395
upperneck 15.27934791455952 -3.093604823279893 2.4654191001117893
head 8.100423009628814 -1.3397574984381388 0.7568230593829683
lclavicle -1.8438997489941206e-15 -2.8778804141833314e-15
lhumerus -37.862972851835806 -20.31673777184004 97.99411439295233
lradius 109.68984887592373
lwrist 34.93505380686901
lhand -25.476027227996575 1.765671753783346
lfingers nan
lthumb 1.172664528401354 31.986490788647156
rclavicle -1.9545792203075375e-15 -2.9686736713510015e-15
rhumerus -62.4980668861894 -1.2243277908522874 -90.8385274086318
rradius 108.07834991473074
rwrist -7.111055742572885
rhand -16.247563833435322 39.486618092407184
rfingers nan
rthumb 10.364008411029843 9.687203295534788
